<svg width="756" height="736" viewBox="0 0 756 736" fill="none" xmlns="http://www.w3.org/2000/svg">
<circle cx="389" cy="368.394" r="366.5" fill="#00405D" stroke="#90DCFF"/>
<path d="M504.858 120.394C456.058 120.394 433.191 147.394 427.858 160.894C396.858 155.394 419.358 160.894 367.858 179.894C326.658 195.094 353.025 225.227 371.358 238.394C375.358 240.227 383.958 243.894 386.358 243.894H424.858C428.358 243.894 469.858 238.394 473.358 238.394C476.858 238.394 552.858 242.894 557.358 243.894C560.958 244.694 631.858 247.56 666.858 248.894L711.858 234.894C713.358 223.894 712.958 201.394 699.358 199.394C682.358 196.894 666.858 176.394 660.358 156.894C653.858 137.394 641.858 124.894 597.358 139.894C552.858 154.894 565.858 120.394 504.858 120.394Z" fill="#3B4F03" stroke="#86B400"/>
<path d="M310.858 317C262.058 317 239.191 344 233.858 357.5C202.858 352 225.358 357.5 173.858 376.5C132.658 391.7 159.025 421.833 177.358 435C181.358 436.833 189.958 440.5 192.358 440.5C195.358 440.5 268 466 271.5 466C275 466 386.004 451.323 389.5 451.5C508 457.5 435.5 620.5 440 621.5C443.6 622.3 451 691 558.5 621.5L585 574.5L624.5 467C624.5 330.5 558.458 332.5 544.858 330.5C527.858 328 472.858 373 466.358 353.5C459.858 334 447.858 321.5 403.358 336.5C358.858 351.5 371.858 317 310.858 317Z" fill="#3B4F03" stroke="#86B400"/>
<path d="M101.357 173.159C70.2209 204.295 74.7231 237.976 80.8661 250.925C57.1982 266.815 75.4428 256.348 56.019 302.642C40.4799 339.678 78.6103 344.162 99.6178 341.775C103.466 340.519 111.546 337.625 113.077 336.094L137.642 311.529C139.875 309.296 162.464 278.928 164.698 276.695C166.931 274.462 218.603 229.153 222.182 226.989C225.044 225.258 272.308 182.048 295.582 160.66L314.394 122.049C307.573 113.313 291.408 97.6587 281.317 104.922C268.702 114.001 244.317 109.395 226.381 99.7532C208.445 90.1119 191.95 88.9295 174.164 127.929C156.378 166.928 140.277 134.238 101.357 173.159Z" fill="#3B4F03" stroke="#86B400"/>
<path fill-rule="evenodd" clip-rule="evenodd" d="M360.501 16.3932C356.334 20.2266 351.701 29.0932 366.501 33.8932C373.47 36.1536 381.646 35.9303 390.707 35.6828C405.699 35.2733 423.114 34.7976 441.5 45.3932C471 62.3932 479.5 66.3932 493.5 63.8932C504.907 61.8563 530.587 50.8572 538.356 33.0595C492.73 12.7073 442.187 1.39355 389.001 1.39355C370.702 1.39355 352.717 2.73271 335.137 5.31835C340.318 8.64922 348.183 12.4134 360.501 16.3932Z" fill="#3B4F03"/>
<path d="M366.501 33.8932L366.347 34.3688L366.347 34.3688L366.501 33.8932ZM360.501 16.3932L360.839 16.7612L361.47 16.1809L360.655 15.9174L360.501 16.3932ZM390.707 35.6828L390.694 35.183L390.694 35.183L390.707 35.6828ZM441.5 45.3932L441.25 45.8264L441.25 45.8264L441.5 45.3932ZM493.5 63.8932L493.588 64.3854L493.588 64.3854L493.5 63.8932ZM538.356 33.0595L538.815 33.2595L539.013 32.8049L538.56 32.6029L538.356 33.0595ZM335.137 5.31835L335.064 4.82367L333.745 5.01774L334.866 5.73894L335.137 5.31835ZM366.655 33.4176C359.338 31.0444 357.043 27.7451 356.888 24.7548C356.728 21.6802 358.798 18.6395 360.839 16.7612L360.162 16.0253C358.037 17.9803 355.707 21.2896 355.889 24.8066C356.076 28.408 358.864 31.9421 366.347 34.3688L366.655 33.4176ZM390.694 35.183C381.608 35.4312 373.526 35.6461 366.655 33.4176L366.347 34.3688C373.414 36.6611 381.684 36.4294 390.721 36.1826L390.694 35.183ZM441.75 44.96C423.229 34.2871 405.683 34.7735 390.694 35.183L390.721 36.1826C405.714 35.7731 422.998 35.3081 441.25 45.8264L441.75 44.96ZM493.412 63.401C486.5 64.6353 480.965 64.2684 473.487 61.4871C465.971 58.6921 456.51 53.4659 441.75 44.96L441.25 45.8264C455.99 54.3205 465.529 59.5944 473.138 62.4244C480.785 65.2681 486.5 65.6511 493.588 64.3854L493.412 63.401ZM537.898 32.8594C534.074 41.6185 525.816 48.75 517.037 53.9566C508.264 59.1596 499.049 62.3945 493.412 63.401L493.588 64.3854C499.358 63.355 508.686 60.0719 517.547 54.8167C526.402 49.565 534.869 42.2981 538.815 33.2595L537.898 32.8594ZM389.001 1.89355C442.115 1.89355 492.59 13.192 538.153 33.5161L538.56 32.6029C492.871 12.2227 442.258 0.893555 389.001 0.893555V1.89355ZM335.209 5.81303C352.766 3.23092 370.727 1.89355 389.001 1.89355V0.893555C370.678 0.893555 352.668 2.2345 335.064 4.82367L335.209 5.81303ZM360.655 15.9174C348.362 11.946 340.541 8.19797 335.407 4.89777L334.866 5.73894C340.095 9.10047 348.003 12.8808 360.347 16.869L360.655 15.9174Z" fill="#86B400"/>
<path fill-rule="evenodd" clip-rule="evenodd" d="M287.154 703.498C292.429 701.44 299.967 694.862 287.921 685.014C282.249 680.376 274.551 677.614 266.019 674.553C251.903 669.489 235.505 663.606 222.223 647.055C200.914 620.5 194.448 613.685 180.496 610.929C169.128 608.683 141.207 609.602 127.503 623.361C162.619 658.898 205.6 687.799 255.153 707.12C272.201 713.767 289.444 719.053 306.763 723.03C303.145 718.045 297.185 711.68 287.154 703.498Z" fill="#3B4F03"/>
<path d="M287.921 685.014L288.238 684.627L288.238 684.627L287.921 685.014ZM287.154 703.498L286.973 703.032L286.174 703.344L286.838 703.885L287.154 703.498ZM266.019 674.553L265.85 675.024L265.85 675.024L266.019 674.553ZM222.223 647.055L222.613 646.742L222.613 646.742L222.223 647.055ZM180.496 610.929L180.593 610.438L180.593 610.438L180.496 610.929ZM127.503 623.361L127.149 623.009L126.799 623.36L127.148 623.713L127.503 623.361ZM306.763 723.03L306.651 723.517L307.951 723.816L307.167 722.736L306.763 723.03ZM287.605 685.401C293.56 690.27 294.5 694.178 293.558 697.02C292.59 699.943 289.557 702.024 286.973 703.032L287.336 703.964C290.026 702.914 293.4 700.677 294.507 697.335C295.642 693.911 294.328 689.606 288.238 684.627L287.605 685.401ZM265.85 675.024C274.405 678.093 282.013 680.829 287.605 685.401L288.238 684.627C282.486 679.923 274.696 677.135 266.187 674.082L265.85 675.024ZM221.833 647.368C235.212 664.039 251.736 669.96 265.85 675.024L266.187 674.082C252.07 669.018 235.798 663.172 222.613 646.742L221.833 647.368ZM180.399 611.419C187.288 612.78 192.311 615.133 198.268 620.441C204.255 625.775 211.171 634.081 221.833 647.368L222.613 646.742C211.966 633.474 204.995 625.095 198.933 619.694C192.842 614.267 187.656 611.834 180.593 610.438L180.399 611.419ZM127.858 623.714C134.602 616.943 144.886 613.298 154.957 611.636C165.021 609.976 174.782 610.31 180.399 611.419L180.593 610.438C174.842 609.302 164.959 608.972 154.794 610.65C144.636 612.326 134.109 616.021 127.149 623.009L127.858 623.714ZM255.334 706.654C205.848 687.359 162.926 658.497 127.859 623.01L127.148 623.713C162.312 659.298 205.352 688.239 254.971 707.586L255.334 706.654ZM306.875 722.543C289.58 718.571 272.36 713.292 255.334 706.654L254.971 707.586C272.042 714.242 289.309 719.535 306.651 723.517L306.875 722.543ZM286.838 703.885C296.848 712.051 302.774 718.384 306.358 723.324L307.167 722.736C303.517 717.705 297.522 711.31 287.47 703.11L286.838 703.885Z" fill="#86B400"/>
</svg>
